<svg width="19" height="19" viewBox="0 0 19 19" fill="none" xmlns="http://www.w3.org/2000/svg">
<path fill-rule="evenodd" clip-rule="evenodd" d="M5.9098 0.843876C6.83842 0.801126 7.13451 0.791626 9.5 0.791626C11.8655 0.791626 12.1616 0.801918 13.0894 0.843876C14.0173 0.885834 14.6506 1.03388 15.2048 1.24842C15.785 1.46771 16.3115 1.8105 16.7469 2.25383C17.1903 2.68846 17.5323 3.21413 17.7508 3.79521C17.9661 4.34938 18.1133 4.98271 18.1561 5.90896C18.1988 6.83917 18.2083 7.13525 18.2083 9.49996C18.2083 11.8655 18.198 12.1615 18.1561 13.0902C18.1141 14.0164 17.9661 14.6497 17.7508 15.2039C17.5322 15.7851 17.1897 16.3116 16.7469 16.7469C16.3115 17.1902 15.785 17.5322 15.2048 17.7507C14.6506 17.966 14.0173 18.1133 13.091 18.156C12.1616 18.1988 11.8655 18.2083 9.5 18.2083C7.13451 18.2083 6.83842 18.198 5.9098 18.156C4.98355 18.1141 4.35021 17.966 3.79605 17.7507C3.2149 17.5322 2.68836 17.1896 2.25309 16.7469C1.81006 16.312 1.46721 15.7857 1.24846 15.2047C1.03392 14.6505 0.886672 14.0172 0.843922 13.091C0.801172 12.1608 0.791672 11.8647 0.791672 9.49996C0.791672 7.13446 0.801963 6.83838 0.843922 5.91054C0.88588 4.98271 1.03392 4.34938 1.24846 3.79521C1.46754 3.21419 1.81064 2.68792 2.25388 2.25304C2.68854 1.81011 3.21455 1.46727 3.79525 1.24842C4.34942 1.03388 4.98276 0.886626 5.90901 0.843876H5.9098ZM13.019 2.41138C12.1006 2.36942 11.8251 2.36071 9.5 2.36071C7.17488 2.36071 6.89938 2.36942 5.98105 2.41138C5.13159 2.45017 4.67084 2.59188 4.36367 2.71142C3.95755 2.86975 3.66701 3.05738 3.36221 3.36217C3.07329 3.64325 2.85094 3.98543 2.71146 4.36363C2.59192 4.67079 2.45021 5.13154 2.41142 5.981C2.36946 6.89933 2.36076 7.17483 2.36076 9.49996C2.36076 11.8251 2.36946 12.1006 2.41142 13.0189C2.45021 13.8684 2.59192 14.3291 2.71146 14.6363C2.8508 15.0139 3.07326 15.3567 3.36221 15.6378C3.64325 15.9267 3.98605 16.1492 4.36367 16.2885C4.67084 16.408 5.13159 16.5498 5.98105 16.5885C6.89938 16.6305 7.17409 16.6392 9.5 16.6392C11.8259 16.6392 12.1006 16.6305 13.019 16.5885C13.8684 16.5498 14.3292 16.408 14.6363 16.2885C15.0425 16.1302 15.333 15.9425 15.6378 15.6378C15.9268 15.3567 16.1492 15.0139 16.2885 14.6363C16.4081 14.3291 16.5498 13.8684 16.5886 13.0189C16.6305 12.1006 16.6393 11.8251 16.6393 9.49996C16.6393 7.17483 16.6305 6.89933 16.5886 5.981C16.5498 5.13154 16.4081 4.67079 16.2885 4.36363C16.1302 3.9575 15.9426 3.66696 15.6378 3.36217C15.3567 3.07327 15.0145 2.85092 14.6363 2.71142C14.3292 2.59188 13.8684 2.45017 13.019 2.41138ZM8.38771 12.1845C9.0089 12.4431 9.7006 12.478 10.3447 12.2832C10.9887 12.0885 11.5452 11.6762 11.919 11.1167C12.2929 10.5573 12.4609 9.8854 12.3944 9.21583C12.3279 8.54627 12.031 7.92056 11.5544 7.44558C11.2506 7.14196 10.8832 6.90948 10.4788 6.76487C10.0743 6.62026 9.64284 6.56712 9.2154 6.60928C8.78795 6.65144 8.37517 6.78785 8.00677 7.00869C7.63837 7.22953 7.32351 7.5293 7.08487 7.88642C6.84623 8.24355 6.68974 8.64915 6.62666 9.07401C6.56359 9.49888 6.5955 9.93244 6.7201 10.3435C6.8447 10.7545 7.05889 11.1329 7.34724 11.4512C7.6356 11.7695 7.99095 12.02 8.38771 12.1845ZM6.33492 6.33488C6.75057 5.91923 7.24401 5.58952 7.78707 5.36458C8.33014 5.13963 8.91219 5.02386 9.5 5.02386C10.0878 5.02386 10.6699 5.13963 11.2129 5.36458C11.756 5.58952 12.2494 5.91923 12.6651 6.33488C13.0807 6.75052 13.4104 7.24396 13.6354 7.78703C13.8603 8.33009 13.9761 8.91215 13.9761 9.49996C13.9761 10.0878 13.8603 10.6698 13.6354 11.2129C13.4104 11.756 13.0807 12.2494 12.6651 12.665C11.8257 13.5045 10.6871 13.9761 9.5 13.9761C8.31287 13.9761 7.17435 13.5045 6.33492 12.665C5.49549 11.8256 5.0239 10.6871 5.0239 9.49996C5.0239 8.31282 5.49549 7.17431 6.33492 6.33488ZM14.9688 5.69046C15.0718 5.5933 15.1543 5.47646 15.2113 5.34686C15.2684 5.21725 15.2988 5.07753 15.3009 4.93595C15.3029 4.79436 15.2766 4.65381 15.2233 4.5226C15.1701 4.39139 15.0911 4.2722 14.991 4.17207C14.8909 4.07195 14.7717 3.99293 14.6404 3.9397C14.5092 3.88647 14.3687 3.86011 14.2271 3.86217C14.0855 3.86423 13.9458 3.89469 13.8162 3.95172C13.6866 4.00875 13.5697 4.09121 13.4726 4.19421C13.2836 4.39452 13.1802 4.6606 13.1842 4.93595C13.1882 5.21129 13.2994 5.47424 13.4941 5.66896C13.6888 5.86368 13.9518 5.97485 14.2271 5.97886C14.5024 5.98288 14.7685 5.87942 14.9688 5.69046Z" fill="#404040"/>
</svg>
