<svg width="60" height="64" viewBox="0 0 60 64" fill="none" xmlns="http://www.w3.org/2000/svg">
<path d="M48.7113 24.8557C48.7113 38.3069 37.8069 49.2113 24.3557 49.2113C10.9044 49.2113 0 38.3069 0 24.8557C0 11.4044 10.9044 0.5 24.3557 0.5C37.8069 0.5 48.7113 11.4044 48.7113 24.8557ZM6.31051 24.8557C6.31051 34.8217 14.3896 42.9008 24.3557 42.9008C34.3217 42.9008 42.4008 34.8217 42.4008 24.8557C42.4008 14.8896 34.3217 6.81051 24.3557 6.81051C14.3896 6.81051 6.31051 14.8896 6.31051 24.8557Z" fill="#FACC15"/>
<path d="M59.1031 39.1443C59.1031 52.5956 48.1987 63.5 34.7474 63.5C21.2962 63.5 10.3918 52.5956 10.3918 39.1443C10.3918 25.6931 21.2962 14.7887 34.7474 14.7887C48.1987 14.7887 59.1031 25.6931 59.1031 39.1443ZM16.7023 39.1443C16.7023 49.1104 24.7814 57.1895 34.7474 57.1895C44.7135 57.1895 52.7926 49.1104 52.7926 39.1443C52.7926 29.1783 44.7135 21.0992 34.7474 21.0992C24.7814 21.0992 16.7023 29.1783 16.7023 39.1443Z" fill="#FACC15"/>
</svg>
